# xmcd
#
# Track frame offsets:
#	150
#	15125
#	35433
#	52257
#	73464
#	94868
#	113528
#	128304
#	152133
#	166933
#	188235
#	212056
#
# Disc length: 2990 seconds
# Revision: 0
# Processed by: cddbd v1.5.2PL0 Copyright (c) Steve Scherf et al.
# Submitted via: dBpowerAMP V12.0
#
DISCID=9a0bac0c
DTITLE=รุ่งนภา เพชรอุบล - มนต์รักรวงข้าว
DYEAR=2016
DGENRE=Country
TTITLE0=รวงข้าวร้าวรัก(ขลุ่ย)
TTITLE1=รวงข้างร้าวรัก
TTITLE2=หลงเสียงดีเจ
TTITLE3=รักลานาแล้ง
TTITLE4=มนต์รักรวงข้าว
TTITLE5=ในอ้อมอกแม่
TTITLE6=ในอ้อมอกแม่(แซกโซโฟน)
TTITLE7=ความรักเจ้าขา
TTITLE8=วันนั้นวันไหน
TTITLE9=รักลานาแล้ง(ดนตรี)
TTITLE10=ความรักเจ้าขา(ดนตรี)
TTITLE11=เบื้องหลัง
EXTD=
EXTT0=
EXTT1=
EXTT2=
EXTT3=
EXTT4=
EXTT5=
EXTT6=
EXTT7=
EXTT8=
EXTT9=
EXTT10=
EXTT11=
PLAYORDER=
